<svg width="17" height="17" viewBox="0 0 17 17" fill="none" xmlns="http://www.w3.org/2000/svg">
<path d="M15.7778 0H0.888889C0.333333 0 0 0.444444 0 0.888889V15.6667C0 16.2222 0.444444 16.5556 0.888889 16.5556H8.88889V10.1111H6.66667V7.66667H8.88889V5.88889C8.88889 3.77778 10.2222 2.55556 12.1111 2.55556C13 2.55556 13.7778 2.66667 14 2.66667V4.88889H12.6667C11.6667 4.88889 11.4444 5.33333 11.4444 6.11111V7.66667H13.8889L13.5556 10.2222H11.4444V16.6667H15.6667C16.2222 16.6667 16.5556 16.2222 16.5556 15.7778V0.888889C16.6667 0.444444 16.2222 0 15.7778 0Z" fill="black"/>
</svg>
