<svg width="26" height="27" viewBox="0 0 26 27" fill="none" xmlns="http://www.w3.org/2000/svg">
<g filter="url(#filter0_d_1_1558)">
<path d="M12.9583 2.95817C15.25 2.95817 15.5 2.95817 16.4167 2.99984C17.25 3.0415 17.7083 3.1665 18 3.2915C18.375 3.4165 18.7083 3.6665 19 3.9165C19.2917 4.20817 19.5 4.5415 19.625 4.9165C19.75 5.20817 19.875 5.6665 19.9167 6.49984C19.9583 7.4165 19.9583 7.6665 19.9583 9.95817C19.9583 12.2498 19.9583 12.4998 19.9167 13.4165C19.875 14.2498 19.75 14.7082 19.625 14.9998C19.3333 15.7498 18.75 16.3332 18 16.6248C17.7083 16.7498 17.25 16.8748 16.4167 16.9165C15.5 16.9582 15.25 16.9582 12.9583 16.9582C10.6667 16.9582 10.4167 16.9582 9.50001 16.9165C8.66667 16.8748 8.20834 16.7498 7.91667 16.6248C7.54167 16.4998 7.20834 16.2498 6.91667 15.9998C6.62501 15.7082 6.41667 15.3748 6.29167 14.9998C6.16667 14.7082 6.04167 14.2498 6.00001 13.4165C5.95834 12.4998 5.95834 12.2498 5.95834 9.95817C5.95834 7.6665 5.95834 7.4165 6.00001 6.49984C6.04167 5.6665 6.16667 5.20817 6.29167 4.9165C6.41667 4.5415 6.66667 4.20817 6.91667 3.9165C7.20834 3.62484 7.54167 3.4165 7.91667 3.2915C8.20834 3.1665 8.66667 3.0415 9.50001 2.99984C10.4167 2.95817 10.7083 2.95817 12.9583 2.95817ZM12.9583 1.4165C10.625 1.4165 10.3333 1.4165 9.41667 1.45817C8.50001 1.49984 7.87501 1.62484 7.33334 1.87484C6.79167 2.08317 6.29167 2.4165 5.87501 2.83317C5.45834 3.24984 5.08334 3.7915 4.87501 4.33317C4.66667 4.87484 4.50001 5.49984 4.45834 6.4165C4.41667 7.33317 4.41667 7.62484 4.41667 9.95817C4.41667 12.2915 4.41667 12.5832 4.45834 13.4998C4.50001 14.4165 4.62501 15.0415 4.87501 15.5832C5.08334 16.1248 5.41667 16.6665 5.87501 17.0832C6.29167 17.4998 6.83334 17.8748 7.37501 18.0832C7.91667 18.2915 8.54167 18.4582 9.45834 18.4998C10.375 18.5415 10.6667 18.5415 13 18.5415C15.3333 18.5415 15.625 18.5415 16.5417 18.4998C17.4583 18.4582 18.0833 18.3332 18.625 18.0832C19.7917 17.6248 20.6667 16.7498 21.125 15.5832C21.3333 15.0415 21.5 14.4165 21.5417 13.4998C21.5833 12.5832 21.5833 12.2915 21.5833 9.95817C21.5833 7.62484 21.5833 7.33317 21.5417 6.4165C21.5 5.49984 21.375 4.87484 21.125 4.33317C20.9167 3.74984 20.5833 3.24984 20.125 2.83317C19.7083 2.4165 19.1667 2.0415 18.625 1.83317C18.0833 1.62484 17.4583 1.45817 16.5417 1.4165C15.5833 1.4165 15.2917 1.4165 12.9583 1.4165Z" fill="black"/>
<path d="M12.9583 5.58301C10.5417 5.58301 8.58334 7.54134 8.58334 9.95801C8.58334 12.3747 10.5417 14.333 12.9583 14.333C15.375 14.333 17.3333 12.3747 17.3333 9.95801C17.375 7.54134 15.4167 5.58301 12.9583 5.58301ZM12.9583 12.833C11.375 12.833 10.125 11.5413 10.125 9.99967C10.125 8.41634 11.4167 7.16634 12.9583 7.16634C14.5417 7.16634 15.7917 8.45801 15.7917 9.99967C15.8333 11.5413 14.5417 12.833 12.9583 12.833Z" fill="black"/>
<path d="M17.5417 6.45833C18.117 6.45833 18.5833 5.99196 18.5833 5.41667C18.5833 4.84137 18.117 4.375 17.5417 4.375C16.9664 4.375 16.5 4.84137 16.5 5.41667C16.5 5.99196 16.9664 6.45833 17.5417 6.45833Z" fill="black"/>
</g>
<defs>
<filter id="filter0_d_1_1558" x="-1" y="0" width="28" height="28" filterUnits="userSpaceOnUse" color-interpolation-filters="sRGB">
<feFlood flood-opacity="0" result="BackgroundImageFix"/>
<feColorMatrix in="SourceAlpha" type="matrix" values="0 0 0 0 0 0 0 0 0 0 0 0 0 0 0 0 0 0 127 0" result="hardAlpha"/>
<feOffset dy="4"/>
<feGaussianBlur stdDeviation="2"/>
<feComposite in2="hardAlpha" operator="out"/>
<feColorMatrix type="matrix" values="0 0 0 0 0 0 0 0 0 0 0 0 0 0 0 0 0 0 0.25 0"/>
<feBlend mode="normal" in2="BackgroundImageFix" result="effect1_dropShadow_1_1558"/>
<feBlend mode="normal" in="SourceGraphic" in2="effect1_dropShadow_1_1558" result="shape"/>
</filter>
</defs>
</svg>
